# xmcd
#
# Track frame offsets: 
#        150
#        17288
#        28200
#        39060
#        55703
#        73525
#        89645
#        101065
#        112228
#        124890
#        138798
#        150245
#
# Disc length: 2185 seconds
#
# Revision: 3
# Processed by: cddbd v1.5.1PL0 Copyright (c) Steve Scherf et al.
# Submitted via: ExactAudioCopy v0.95a5
#
DISCID=9408870c
DTITLE=Freddie King - Freddie King Is A Blues Master
DYEAR=1900
DGENRE=Blues
TTITLE0=Play It Cool
TTITLE1=That Will Never Do
TTITLE2=It's Too Late, She's Gone
TTITLE3=Blue Shadows
TTITLE4=Today I Sing The Blues
TTITLE5=Get Out Of My Life, Woman
TTITLE6=Hideaway
TTITLE7=Funky
TTITLE8=Hot Tomato
TTITLE9=Wide Open
TTITLE10=Sweet Thing
TTITLE11=Let Me Down Easy
EXTD=
EXTT0=
EXTT1=
EXTT2=
EXTT3=
EXTT4=
EXTT5=
EXTT6=
EXTT7=
EXTT8=
EXTT9=
EXTT10=
EXTT11=
PLAYORDER=
